<svg xmlns="http://www.w3.org/2000/svg" viewBox="0 0 719.12 258.1"><defs><style>.cls-1{fill:#472737;}.cls-2{fill:none;}.cls-3{fill:#ffdb00;}</style></defs><g id="Warstwa_2" data-name="Warstwa 2"><g id="Warstwa_20" data-name="Warstwa 20"><path class="cls-1" d="M716.59,31H693.25A2.92,2.92,0,0,0,690.33,34V98.51q0,12.58-4.09,20.18a24.76,24.76,0,0,1-12.06,11.14Q667,133,654.77,133.34a2.92,2.92,0,0,0-2.83,2.91v17.43a2.93,2.93,0,0,0,3,2.92c13.22-.28,24.09-2.38,33.14-6.41A50.91,50.91,0,0,0,712.63,128c4.37-8.1,6.49-17.73,6.49-29.46V33.56A2.53,2.53,0,0,0,716.59,31Z"/><path class="cls-1" d="M303.1,31h57.1A2.92,2.92,0,0,1,363.12,34v15.6a2.92,2.92,0,0,1-2.92,2.92H347.84a2.92,2.92,0,0,0-2.92,2.92V122a2.91,2.91,0,0,1-2.91,2.92H321.12A2.92,2.92,0,0,1,318.2,122V55.39a2.92,2.92,0,0,0-2.92-2.92H303.1a2.91,2.91,0,0,1-2.92-2.92V34A2.92,2.92,0,0,1,303.1,31Z"/><path class="cls-1" d="M370.57,34A2.92,2.92,0,0,1,373.49,31H401.3q18.63,0,29.42,7.73a24.51,24.51,0,0,1,10.8,21,24.83,24.83,0,0,1-13.4,21.55,2.91,2.91,0,0,0-1.29,3.89l17.64,35.44a2.92,2.92,0,0,1-2.61,4.22H420.51a2.93,2.93,0,0,1-2.61-1.62L397.38,82.13H397V122a2.92,2.92,0,0,1-2.92,2.92H373.49a2.92,2.92,0,0,1-2.92-2.92ZM397,52.21V68.42a2.89,2.89,0,0,0,3.08,2.9q14.42-1,14.41-9.78,0-6.54-4-9.35-3.33-2.31-10.29-2.87A2.91,2.91,0,0,0,397,52.21Z"/><path class="cls-1" d="M455.45,31H503A2.92,2.92,0,0,1,505.9,34V48.08A2.91,2.91,0,0,1,503,51H481.83a2.92,2.92,0,0,0-2.92,2.92V65.37a2.92,2.92,0,0,0,2.92,2.92h17.59a2.91,2.91,0,0,1,2.91,2.91V84.84a2.91,2.91,0,0,1-2.91,2.92H481.83a2.91,2.91,0,0,0-2.92,2.91v11.26a2.91,2.91,0,0,0,2.92,2.91h21.33a2.91,2.91,0,0,1,2.91,2.92V122a2.91,2.91,0,0,1-2.91,2.92H455.45a2.91,2.91,0,0,1-2.91-2.92V34A2.91,2.91,0,0,1,455.45,31Z"/><path class="cls-1" d="M516.46,31h22.1A2.92,2.92,0,0,1,541,32.41l27.36,44.2a2.36,2.36,0,0,0,4.35-1.46h0a1.77,1.77,0,0,1,0-.23V34A2.91,2.91,0,0,1,575.65,31H596.2A2.92,2.92,0,0,1,599.12,34v88a2.92,2.92,0,0,1-2.92,2.92H573.67a2.92,2.92,0,0,1-2.48-1.39l-25.88-42a2.91,2.91,0,0,0-5.39,1.7h0V122a2.92,2.92,0,0,1-2.92,2.92H516.46a2.92,2.92,0,0,1-2.92-2.92V34A2.92,2.92,0,0,1,516.46,31Z"/><path class="cls-1" d="M609.07,31h21.24A2.92,2.92,0,0,1,633.23,34V97.11a9.29,9.29,0,0,0,3,7.34,11.83,11.83,0,0,0,8.18,2.71q5.31,0,8.4-2.88a10.33,10.33,0,0,0,3.09-8V34A2.92,2.92,0,0,1,658.87,31h21.06A2.92,2.92,0,0,1,682.85,34V92.61q0,12.58-4.09,20.17a24.78,24.78,0,0,1-12.06,11.15q-8,3.54-22.24,3.55-21.08,0-29.69-8.72t-8.61-29.45V34A2.91,2.91,0,0,1,609.07,31Z"/><path class="cls-1" d="M293.44,246v-4.8a25.76,25.76,0,0,0,18.12-6.86A22.52,22.52,0,0,0,319,217.06v-83.8h5.8v83.8a26.63,26.63,0,0,1-9.15,20.83A32.26,32.26,0,0,1,293.44,246Z"/><path class="cls-1" d="M389.87,214.15h-1.64a41.9,41.9,0,0,1-30-12.25q-12.78-12.26-12.78-28.54t12.68-28.19q12.69-11.91,31.36-11.91t32.09,14.05l-56.92,53.13q11.77,8.91,22.66,8.91a39.91,39.91,0,0,0,19.48-4.71A42,42,0,0,0,421,192v8.74A41.68,41.68,0,0,1,389.87,214.15ZM388,138.05q-14.4,0-25.56,10.54t-11.14,24.26a34.05,34.05,0,0,0,9.6,24l52.75-49.53A39.22,39.22,0,0,0,388,138.05Z"/><path class="cls-1" d="M505.78,138.05q7.7-5,18.76-5a28,28,0,0,1,19.4,7.55q8.32,7.53,8.33,20.39v51.07h-5.8V161a22,22,0,0,0-6.88-16.54,23.14,23.14,0,0,0-16.59-6.6,24.82,24.82,0,0,0-17.22,6.86q-7.53,6.85-7.52,15.94v51.41h-5.8V160.68a21.75,21.75,0,0,0-6.89-16,22.93,22.93,0,0,0-16.68-6.77,24,24,0,0,0-17,6.86q-7.25,6.85-7.25,15.94v51.41h-5.8V135h5.8v10.8a29.91,29.91,0,0,1,10.79-8.92,31.54,31.54,0,0,1,14.86-3.77A25.07,25.07,0,0,1,485,138.14a29.4,29.4,0,0,1,10.33,13.11A24.59,24.59,0,0,1,505.78,138.05Z"/><path class="cls-1" d="M639.64,133.26h5.8v76.43a34.28,34.28,0,0,1-11.24,25.88Q623,246.21,606.65,246.2q-19.57,0-31-14.22l.37-8.58a38.45,38.45,0,0,0,13.32,13.12,33.53,33.53,0,0,0,17.31,4.88,32.8,32.8,0,0,0,23.2-9.17q9.79-9.16,9.79-22v-13q-8.88,16.8-31,16.8a36.28,36.28,0,0,1-25.74-10q-10.7-10-10.69-24.08V133.26H578v46.61q0,11.83,9.15,20.57a31.21,31.21,0,0,0,43.32,0q9.16-8.74,9.16-20.57Z"/><path class="cls-1" d="M248.06,243.62c-4.32-6.49-41.13-11.6-86.62-11.9A85,85,0,0,1,72,240.17c-3.9,1.47-6,3.06-6,4.73,0,7.29,40.86,13.2,91.26,13.2,46.7,0,85.19-5.07,90.61-11.61a2.51,2.51,0,0,0,.66-1.59A2.25,2.25,0,0,0,248.06,243.62Z"/><path class="cls-2" d="M139.51,81.35s4.69.66,7.11,2.66c0,0-6.43-26.22-17.09-46.71A180.79,180.79,0,0,1,139.51,81.35Z"/><ellipse class="cls-2" cx="19.25" cy="62.73" rx="9.79" ry="3.35" transform="translate(-45.68 53.24) rotate(-64.62)"/><path class="cls-2" d="M13.68,57.63C46.19,3.69,136.27,3.11,136.27,3.11,105.56-2.4,26.31,18.82,7.52,55.17s34.8,85,34.8,85C23.23,119.55,1.57,77.73,13.68,57.63Z"/><path class="cls-2" d="M30.93,44.08S56.8,16.36,124.88,6.5C124.88,6.5,58,10.28,30.93,44.08Z"/><path class="cls-2" d="M45.41,133.66c-6-.54-29.12-37.31-32.66-59.39,0,0,4.62,37,31.73,64.37,0,0,7.09-.24,12.63-8.44C57.11,130.2,51.39,134.21,45.41,133.66Z"/><path class="cls-2" d="M99.74,104.26c-2.86-3.41-10.78-2.07-18,3.13-7.35,5.31-11.13,12.63-8.45,16.34s10.82,2.41,18.17-2.9c5.59-4,9.1-9.24,9.29-13.13-2.86.16-7.41,1.53-14.15,6.41C86.64,114.11,93.37,107.22,99.74,104.26Z"/><path class="cls-2" d="M61.1,112.48s27.12-23.43,47.14-25C108.24,87.51,79.89,87.53,61.1,112.48Z"/><path class="cls-3" d="M144.08,191.36a14.1,14.1,0,0,0,5.69,3.52,4.44,4.44,0,0,0,1.19,6.64c-3.48,4.28-2.11,10.5,3.21,12,4,1.09,9.7-.63,11.14-4-2-.64-4.8-8.23-.5-10.79a13.59,13.59,0,0,1,.62-1.83,9.77,9.77,0,0,1-3-13.68c-3.88-2.62-6.08-7.34-4.46-11.93a9.15,9.15,0,0,1-1.32-1.72h0a8.78,8.78,0,0,1,6.42-13,8.31,8.31,0,0,1,1.18-2.5c-4.05-4.79-2.13-12.29,2.9-15.47.82-6.68,5.49-12.12,11-15.52A19.63,19.63,0,0,0,158.7,137.4c-5.34-2.05-12-1.1-16.22,2.9a10.34,10.34,0,0,0-.53,14.79c-4.9,1-8.18,6-5.37,10.69-3.4,2.79-3.54,7.34.45,9.36,2.5,1.27,6.2,2.08,8.44.47C139.71,179.74,139.56,186.65,144.08,191.36Z"/><path class="cls-1" d="M167.39,141.44a11.17,11.17,0,0,1,2.15-1.4,17.87,17.87,0,0,1,4.07-10.38c1.6-2,6.54-6.63,9.41-5.81A77.07,77.07,0,0,0,167,102.93v0a82.41,82.41,0,0,0-30-18.22h0c-29.87-10.36-62-2.45-84.95,18.79C46.94,93.35,41.65,81.83,41.44,70.28c0-2.78.09-6.34,1.91-8.64-.82,4.93.82,11.91.82,11.91.25-6.52,9.14-12.47,13.68-15.69,9.83-7,20.87-12.35,31.92-17.08,9.25-4,19-7.6,29-8.8,4.78-.57,14.45-1.31,17.35,3.77-2.86-1.41-6.79-1.16-9.88-.81,5.58,11.55,9.75,37.45,11,47.88a83.11,83.11,0,0,1,30,17.91c4.6-28.1,10-59.59-1.86-86.68-1.56-3.58-3.08-6.4-6.41-8.49A31.67,31.67,0,0,0,149,1.8c-9.07-2-18.61-2-27.84-1.51-28.35,1.61-57.6,8.78-83,21.62-9.26,4.68-18.31,10.36-25.55,17.87A43.86,43.86,0,0,0,.44,65.56c-3.36,26.52,13,51.1,31.26,68.7-5.37,12.77-6.34,28-4.27,41.62q2.63,1.06,5.32,1.93c-2.91-17.65.45-35.57,2-40.68,2.11,1.92,3.87,3.4,5.09,4.38a5.67,5.67,0,0,0,4.34,1.21c13.93-1.84,17.81-11.6,18.87-16.31a6,6,0,0,0-.73-4.4c-3.17-5.19-5.88-10-8.2-14.33,18.38-17.44,45.21-30,70.73-22.94,0,0-39.21-5.79-67.43,26.39,2,3.63,4.09,7.19,6.26,10.72a6.76,6.76,0,0,1,1,4.28,20.92,20.92,0,0,1-3.21,9.7C57.73,141.43,51.35,144.41,45,146a.93.93,0,0,0-.68.77A118.83,118.83,0,0,0,44.73,181c.9.2,1.8.39,2.71.57A85,85,0,0,1,47.53,153c0,.69,1.19,21.77,2.81,29.11,29.5,5.4,59.14,2.06,87.7-6.55-4.68-1.57-5.45-6.52-1.46-9.8-2.81-4.66.47-9.67,5.37-10.69a10.34,10.34,0,0,1,.53-14.79c4.21-4,10.88-5,16.22-2.9A19.5,19.5,0,0,1,177.64,123a21.52,21.52,0,0,0-10.44,15.51c-5.38,3.4-7.19,10.39-2.9,15.47a8.31,8.31,0,0,0-1.18,2.5,8.78,8.78,0,0,0-6.42,13h0a9.15,9.15,0,0,0,1.32,1.72c-1.62,4.58.58,9.31,4.46,11.93a9.77,9.77,0,0,0,3,13.68,13.59,13.59,0,0,0-.62,1.83c-4.7,2.8-4.07,8.34.15,11.14a10.65,10.65,0,0,1-11,3.26c-5-1.67-6.29-7.48-3-11.56a4.44,4.44,0,0,1-1.19-6.64c-3.82-1.28-7.27-4.16-8.37-8.14a222.69,222.69,0,0,1-38.83,10.14c-15.82,2.57-31.74,2.49-47.65.86,3.81,10.33,9,20.47,15.93,29.06-8.58-8.44-15.31-18.06-19.4-29.44L49,197c13.28,35.54,45.19,44.47,45.19,44.47l-1.43-.4c.42.14.84.28,1.27.4-24.94-6.6-47.43-21.92-56.86-46.69A46.42,46.42,0,0,1,32,193.23a83.23,83.23,0,0,0,118.2,42.9c10.56-5.89,19.2-13.95,26.59-23.45-2.38,1.37-6.59-2.38-7.86-4.15-4.79-.35-7.32-6.1-2-8.17a11.17,11.17,0,0,1,1.93-4.73,7.25,7.25,0,0,1-2.26-13.11c-4.9-1.72-8.66-7-5.56-12-5.74-3.31-2.49-13,4.15-11.52a6.25,6.25,0,0,1,2.53-5.1A7.71,7.71,0,0,1,167.39,141.44ZM30.93,44.08C58,10.28,124.88,6.5,124.88,6.5,56.8,16.36,30.93,44.08,30.93,44.08ZM139.51,81.35a180.79,180.79,0,0,0-10-44C140.19,57.79,146.62,84,146.62,84,144.2,82,139.51,81.35,139.51,81.35ZM7.52,55.17c18.79-36.35,98-57.57,128.75-52.06,0,0-90.08.58-122.59,54.52-12.11,20.1,9.55,61.92,28.64,82.55C42.32,140.18-11.27,91.52,7.52,55.17Zm14.75,9c-2.31,4.89-5.54,8.2-7.22,7.41s-1.14-5.39,1.17-10.28,5.55-8.19,7.22-7.4S24.59,59.28,22.27,64.16Zm34.84,66c-5.54,8.2-12.63,8.44-12.63,8.44C17.37,111.23,12.75,74.27,12.75,74.27c3.54,22.08,26.67,58.85,32.66,59.39S57.11,130.2,57.11,130.2Zm34.39-9.37c-7.35,5.31-15.48,6.61-18.17,2.9s1.1-11,8.45-16.34c7.18-5.2,15.1-6.54,18-3.13-6.37,3-13.1,9.85-13.1,9.85,6.74-4.88,11.29-6.25,14.15-6.41C100.6,111.59,97.09,116.78,91.5,120.83Zm-30.4-8.35c18.79-25,47.14-25,47.14-25C88.22,89.05,61.1,112.48,61.1,112.48Z"/><path class="cls-1" d="M36.24,192.21a81.29,81.29,0,0,1-3-11.86c-3.47-1.07-5.35-1.84-5.35-1.84a65.2,65.2,0,0,0,3.06,11.75A24.72,24.72,0,0,0,36.24,192.21Z"/><path class="cls-1" d="M48.13,194.62l2.5.34a84.92,84.92,0,0,1-2.74-11h0l-2.67-.54A88.8,88.8,0,0,0,48.13,194.62Z"/><path class="cls-1" d="M145.47,175.61c-30.11,10.66-63,14.52-94.57,8.94.93,3.84,2,7.45,3.17,10.81C69,197,84,197.28,98.82,195.15a217.37,217.37,0,0,0,42.23-10.7A10.81,10.81,0,0,1,145.47,175.61Z"/><path class="cls-1" d="M143.83,144.15c3.44-4.52,12.11-5.51,12.11-5.51S145.68,138,142.07,143s1.1,11.6,1.1,11.6S140.39,148.67,143.83,144.15Z"/><path class="cls-1" d="M136.27,170.12c0-3,4.44-4.31,4.44-4.31s-4.45-2.1-2-7.67c0,0-3.47,2.62-1,7.57,0,0-4,2.94-2.62,6.1s7,3.36,7,3.36S136.31,173.09,136.27,170.12Z"/><path class="cls-1" d="M149.72,193.57s-8.93-6.63-4.25-16.41c0,0-4.37,3.79-2.79,9.26S149.72,193.57,149.72,193.57Z"/><path class="cls-1" d="M151.4,203.88s-2.94,13,11.57,6.62C163,210.5,151.61,214.71,151.4,203.88Z"/><path class="cls-1" d="M154.05,150.21c-5.26,1.66-1.61,7.47-1.61,7.47-2.58,3.32.35,9.11.35,9.11a8.56,8.56,0,0,1,3.15-9.25C150.22,155.33,154.05,150.21,154.05,150.21Z"/><path class="cls-1" d="M157.75,184.48c-3.24,5.68,3.53,10.17,3.53,10.17-4.43-4.56-.79-11.48-.79-11.48-3.25,1.17-6.56-2-6.56-2C154.45,184.28,157.75,184.48,157.75,184.48Z"/></g></g></svg>